# xmcd
#
# Track frame offsets: 
#        150
#        14963
#        30160
#        46735
#        56477
#        71501
#        83236
#        97703
#        114997
#        127329
#        137777
#        146842
#        159140
#        173914
#        179261
#
# Disc length: 2594 seconds
#
# Revision: 0
# Processed by: cddbd v1.5.1PL2 Copyright (c) Steve Scherf et al.
# Submitted via: ExactAudioCopy v0.95b4
#
DISCID=c50a200f
DTITLE=The Rat Pack - Platinum Classic - Disk 2
DYEAR=2004
DGENRE=Swing
TTITLE0=There's No business Like Show Business
TTITLE1=Some Enchanted Evening
TTITLE2=I Only Have Eyes For You
TTITLE3=You Won't Be Satisfied Until You Break My Heart
TTITLE4=Another Done Somebody Wrong song
TTITLE5=The Way You Look Tonight
TTITLE6=We Could Have Been The Closest Of Friends
TTITLE7=Begin The beguine
TTITLE8=That Old Black Magic
TTITLE9=September Song
TTITLE10=The night Is Young And You're So Beautiful
TTITLE11=Through A long And Sleepless Night
TTITLE12=Someone Had To Watch Over Me
TTITLE13=Baby It's Cold Outside
TTITLE14=Please Dont Tell Me How The Story Ends
EXTD=
EXTT0=
EXTT1=
EXTT2=
EXTT3=
EXTT4=
EXTT5=
EXTT6=
EXTT7=
EXTT8=
EXTT9=
EXTT10=
EXTT11=
EXTT12=
EXTT13=
EXTT14=
PLAYORDER=
